<svg width="950" height="310" viewBox="0 0 950 310" xmlns="http://www.w3.org/2000/svg">
<defs><style>.node{fill:#eef2ff;stroke:#4f46e5;stroke-width:2;rx:14}.topic{fill:#ecfdf5;stroke:#059669;stroke-width:2;rx:14}.text{font:16px Arial;fill:#111827}.bold{font:700 18px Arial;fill:#111827}.arrow{stroke:#111827;stroke-width:2.5;marker-end:url(#m)}</style><marker id="m" markerWidth="10" markerHeight="10" refX="8" refY="3" orient="auto"><path d="M0,0 L0,6 L9,3 z" fill="#111827"/></marker></defs>
<rect width="950" height="310" fill="white"/>
<rect x="40" y="45" width="210" height="75" class="topic"/><text x="65" y="88" class="bold">/color/preview/image</text>
<rect x="330" y="35" width="230" height="95" class="node"/><text x="360" y="78" class="bold">vision_angle</text><text x="360" y="105" class="text">shoe heading estimate</text>
<rect x="640" y="45" width="260" height="75" class="topic"/><text x="665" y="88" class="bold">/person_heading_deg</text>
<rect x="40" y="195" width="210" height="75" class="topic"/><text x="65" y="238" class="bold">/rpi_11/scan</text>
<rect x="330" y="180" width="230" height="105" class="node"/><text x="360" y="223" class="bold">gap_follower</text><text x="360" y="250" class="text">LiDAR gap + heading</text>
<rect x="640" y="195" width="260" height="75" class="topic"/><text x="665" y="238" class="bold">/rpi_11/cmd_vel</text>
<line x1="250" y1="82" x2="330" y2="82" class="arrow"/><line x1="560" y1="82" x2="640" y2="82" class="arrow"/><line x1="770" y1="120" x2="520" y2="180" class="arrow"/><line x1="250" y1="232" x2="330" y2="232" class="arrow"/><line x1="560" y1="232" x2="640" y2="232" class="arrow"/>
</svg>