<svg width="1100" height="420" viewBox="0 0 1100 420" xmlns="http://www.w3.org/2000/svg">
<defs><style>.box{fill:#f8fafc;stroke:#2563eb;stroke-width:2;rx:18}.title{font:700 22px Arial;fill:#0f172a}.txt{font:16px Arial;fill:#334155}.arrow{stroke:#0f172a;stroke-width:3;marker-end:url(#m)}.small{font:13px Arial;fill:#64748b}</style><marker id="m" markerWidth="10" markerHeight="10" refX="8" refY="3" orient="auto"><path d="M0,0 L0,6 L9,3 z" fill="#0f172a"/></marker></defs>
<rect width="1100" height="420" fill="white"/>
<rect x="35" y="60" width="210" height="145" class="box"/><text x="60" y="100" class="title">OAK-D Camera</text><text x="60" y="132" class="txt">RGB frame stream</text><text x="60" y="158" class="small">/color/preview/image</text>
<rect x="310" y="60" width="235" height="145" class="box"/><text x="335" y="100" class="title">Vision Model</text><text x="335" y="132" class="txt">ResNet18 regressor</text><text x="335" y="158" class="small">x offset · distance · angle</text>
<rect x="610" y="60" width="210" height="145" class="box"/><text x="635" y="100" class="title">Heading Topic</text><text x="635" y="132" class="txt">Float32 degrees</text><text x="635" y="158" class="small">/rpi_11/person_heading_deg</text>
<rect x="35" y="260" width="210" height="105" class="box"/><text x="60" y="300" class="title">LiDAR</text><text x="60" y="332" class="small">/rpi_11/scan</text>
<rect x="610" y="250" width="210" height="125" class="box"/><text x="635" y="290" class="title">Gap Follower</text><text x="635" y="322" class="txt">free-space gap + target heading</text>
<rect x="880" y="250" width="185" height="125" class="box"/><text x="905" y="290" class="title">TurtleBot</text><text x="905" y="322" class="small">/rpi_11/cmd_vel</text>
<line x1="245" y1="132" x2="310" y2="132" class="arrow"/><line x1="545" y1="132" x2="610" y2="132" class="arrow"/><line x1="715" y1="205" x2="715" y2="250" class="arrow"/><line x1="245" y1="312" x2="610" y2="312" class="arrow"/><line x1="820" y1="312" x2="880" y2="312" class="arrow"/>
</svg>